# xmcd
#
# Track frame offsets:
#	150
#	15740
#	33392
#	52145
#	65177
#	82415
#	99180
#	115512
#	131827
#	147542
#	162570
#	174642
#	191487
#	202507
#
# Disc length: 2889 seconds
#
# Revision: 0
# Processed by: cddbd v1.5.1PL0 Copyright (c) Steve Scherf et al.
# Submitted via: audiograbber 1.83.01
#
DISCID=cb0b470e
DTITLE=StarDisc - SD036 - Country Hits Today
DYEAR=1900
DGENRE=Karaoke
TTITLE0=Tracy Lawrence - Better Man, Better Off
TTITLE1=LeAnn Rimes - Unchained Melody
TTITLE2=John Michael Montgomery - I Miss You A Little
TTITLE3=Clay Walker - Rumor Has It
TTITLE4=Collin Raye - On The Verge
TTITLE5=Trisha Yearwood - I Need You
TTITLE6=Alabama - Sad Lookin' Moon
TTITLE7=Ricochet - Ease My Troubled Mind
TTITLE8=Lorrie Morgan - Good As I Was To You
TTITLE9=Kevin Sharp - She's Sure Takin' It Well
TTITLE10=Mindy McCready - A Girl's Gotta Do
TTITLE11=The Buffalo Club - If She Don't Love You
TTITLE12=Daryle Singletary - The Used To Be's
TTITLE13=Bryan White - Sittin' On Go
EXTD=
EXTT0=
EXTT1=
EXTT2=
EXTT3=
EXTT4=
EXTT5=
EXTT6=
EXTT7=
EXTT8=
EXTT9=
EXTT10=
EXTT11=
EXTT12=
EXTT13=
PLAYORDER=
